<mxfile host="app.diagrams.net" modified="2024-06-02T14:18:51.674Z" agent="Mozilla/5.0 (Windows NT 10.0; Win64; x64) AppleWebKit/537.36 (KHTML, like Gecko) Chrome/123.0.0.0 Safari/537.36 OPR/109.0.0.0" etag="PMOUuOhczkRitvqVW27x" version="24.4.10" type="github">
  <diagram id="prtHgNgQTEPvFCAcTncT" name="Page-1">
    <mxGraphModel dx="993" dy="710" grid="1" gridSize="10" guides="1" tooltips="1" connect="1" arrows="1" fold="1" page="1" pageScale="1" pageWidth="827" pageHeight="1169" math="0" shadow="0">
      <root>
        <mxCell id="0" />
        <mxCell id="1" parent="0" />
        <mxCell id="rOyJMDHYMQfO11lDyAVW-41" value="&quot;enemy&quot;" style="rounded=0;whiteSpace=wrap;html=1;fillColor=#d5e8d4;strokeColor=#82b366;" parent="1" vertex="1">
          <mxGeometry x="920" y="193" width="80" height="25" as="geometry" />
        </mxCell>
        <mxCell id="rOyJMDHYMQfO11lDyAVW-40" value="lucy" style="rounded=0;whiteSpace=wrap;html=1;fillColor=#d5e8d4;strokeColor=#82b366;" parent="1" vertex="1">
          <mxGeometry x="748" y="193" width="80" height="25" as="geometry" />
        </mxCell>
        <mxCell id="HAnbgLj2aRi-n-r4w7ch-6" style="edgeStyle=orthogonalEdgeStyle;rounded=0;orthogonalLoop=1;jettySize=auto;html=1;entryX=0.5;entryY=1;entryDx=0;entryDy=0;fillColor=#60a917;strokeColor=#2D7600;strokeWidth=2;" parent="1" source="rOyJMDHYMQfO11lDyAVW-8" target="rOyJMDHYMQfO11lDyAVW-9" edge="1">
          <mxGeometry relative="1" as="geometry" />
        </mxCell>
        <mxCell id="rOyJMDHYMQfO11lDyAVW-8" value="&lt;font style=&quot;font-size: 14px;&quot;&gt;game&lt;/font&gt;" style="rounded=0;whiteSpace=wrap;html=1;fillColor=#60a917;strokeColor=#2D7600;fontColor=#ffffff;" parent="1" vertex="1">
          <mxGeometry x="374" y="120" width="80" height="25" as="geometry" />
        </mxCell>
        <mxCell id="rOyJMDHYMQfO11lDyAVW-9" value="&lt;font style=&quot;font-size: 18px;&quot;&gt;main-menu&lt;/font&gt;" style="rounded=0;whiteSpace=wrap;html=1;fillColor=#008a00;strokeColor=#005700;fontColor=#ffffff;" parent="1" vertex="1">
          <mxGeometry x="356" y="20" width="116" height="50" as="geometry" />
        </mxCell>
        <mxCell id="rOyJMDHYMQfO11lDyAVW-12" style="edgeStyle=orthogonalEdgeStyle;rounded=0;orthogonalLoop=1;jettySize=auto;html=1;entryX=0.25;entryY=1;entryDx=0;entryDy=0;fillColor=#d5e8d4;strokeColor=#82b366;strokeWidth=2;" parent="1" source="rOyJMDHYMQfO11lDyAVW-11" target="rOyJMDHYMQfO11lDyAVW-8" edge="1">
          <mxGeometry relative="1" as="geometry">
            <Array as="points">
              <mxPoint x="245" y="180" />
              <mxPoint x="394" y="180" />
            </Array>
          </mxGeometry>
        </mxCell>
        <mxCell id="rOyJMDHYMQfO11lDyAVW-11" value="hero" style="rounded=0;whiteSpace=wrap;html=1;fillColor=#d5e8d4;strokeColor=#82b366;" parent="1" vertex="1">
          <mxGeometry x="205" y="193" width="80" height="25" as="geometry" />
        </mxCell>
        <mxCell id="nW0WKrF9zy4aoc_lYDbR-35" style="edgeStyle=orthogonalEdgeStyle;rounded=0;orthogonalLoop=1;jettySize=auto;html=1;entryX=0.75;entryY=1;entryDx=0;entryDy=0;fillColor=#d5e8d4;gradientColor=#97d077;strokeColor=#82b366;exitX=0.5;exitY=0;exitDx=0;exitDy=0;strokeWidth=2;" parent="1" source="rOyJMDHYMQfO11lDyAVW-13" target="rOyJMDHYMQfO11lDyAVW-8" edge="1">
          <mxGeometry relative="1" as="geometry">
            <Array as="points">
              <mxPoint x="620" y="180" />
              <mxPoint x="434" y="180" />
            </Array>
          </mxGeometry>
        </mxCell>
        <mxCell id="rOyJMDHYMQfO11lDyAVW-13" value="katarina" style="rounded=0;whiteSpace=wrap;html=1;fillColor=#d5e8d4;strokeColor=#82b366;" parent="1" vertex="1">
          <mxGeometry x="580" y="193" width="80" height="25" as="geometry" />
        </mxCell>
        <mxCell id="rOyJMDHYMQfO11lDyAVW-17" style="edgeStyle=orthogonalEdgeStyle;rounded=0;orthogonalLoop=1;jettySize=auto;html=1;entryX=0.5;entryY=1;entryDx=0;entryDy=0;fillColor=#d0cee2;strokeColor=#56517e;strokeWidth=2;" parent="1" source="rOyJMDHYMQfO11lDyAVW-16" target="rr9nGGbvP-Pm4ZiBwVh3-2" edge="1">
          <mxGeometry relative="1" as="geometry" />
        </mxCell>
        <mxCell id="rOyJMDHYMQfO11lDyAVW-54" style="edgeStyle=orthogonalEdgeStyle;rounded=0;orthogonalLoop=1;jettySize=auto;html=1;entryX=0.75;entryY=1;entryDx=0;entryDy=0;fillColor=#d0cee2;strokeColor=#56517e;strokeWidth=2;" parent="1" source="rOyJMDHYMQfO11lDyAVW-16" target="rOyJMDHYMQfO11lDyAVW-11" edge="1">
          <mxGeometry relative="1" as="geometry">
            <Array as="points">
              <mxPoint x="265" y="280" />
            </Array>
          </mxGeometry>
        </mxCell>
        <mxCell id="rOyJMDHYMQfO11lDyAVW-55" style="edgeStyle=orthogonalEdgeStyle;rounded=0;orthogonalLoop=1;jettySize=auto;html=1;entryX=0.75;entryY=1;entryDx=0;entryDy=0;fillColor=#d0cee2;strokeColor=#56517E;strokeWidth=2;" parent="1" source="rOyJMDHYMQfO11lDyAVW-16" target="rOyJMDHYMQfO11lDyAVW-13" edge="1">
          <mxGeometry relative="1" as="geometry">
            <Array as="points">
              <mxPoint x="640" y="280" />
            </Array>
            <mxPoint x="560" y="235" as="targetPoint" />
          </mxGeometry>
        </mxCell>
        <mxCell id="nW0WKrF9zy4aoc_lYDbR-5" style="edgeStyle=orthogonalEdgeStyle;rounded=0;orthogonalLoop=1;jettySize=auto;html=1;entryX=0.75;entryY=1;entryDx=0;entryDy=0;fillColor=#d0cee2;strokeColor=#56517e;strokeWidth=2;" parent="1" source="rOyJMDHYMQfO11lDyAVW-16" target="rOyJMDHYMQfO11lDyAVW-41" edge="1">
          <mxGeometry relative="1" as="geometry">
            <Array as="points">
              <mxPoint x="980" y="280" />
            </Array>
          </mxGeometry>
        </mxCell>
        <mxCell id="thggh9IT_qASrTLztBCA-11" style="edgeStyle=orthogonalEdgeStyle;rounded=0;orthogonalLoop=1;jettySize=auto;html=1;entryX=0.75;entryY=1;entryDx=0;entryDy=0;fillColor=#e1d5e7;strokeColor=#56517E;strokeWidth=2;" parent="1" source="rOyJMDHYMQfO11lDyAVW-16" target="rOyJMDHYMQfO11lDyAVW-40" edge="1">
          <mxGeometry relative="1" as="geometry">
            <Array as="points">
              <mxPoint x="808" y="280" />
            </Array>
          </mxGeometry>
        </mxCell>
        <mxCell id="rOyJMDHYMQfO11lDyAVW-16" value="&lt;b&gt;&lt;u&gt;game-service&lt;/u&gt;&lt;/b&gt;" style="ellipse;whiteSpace=wrap;html=1;direction=south;fillColor=#D0CEE2;strokeColor=#56517e;" parent="1" vertex="1">
          <mxGeometry x="346" y="250" width="136" height="70" as="geometry" />
        </mxCell>
        <mxCell id="rOyJMDHYMQfO11lDyAVW-19" style="edgeStyle=orthogonalEdgeStyle;rounded=0;orthogonalLoop=1;jettySize=auto;html=1;entryX=0.5;entryY=1;entryDx=0;entryDy=0;fillColor=#e1d5e7;strokeColor=#9673a6;strokeWidth=2;" parent="1" source="rOyJMDHYMQfO11lDyAVW-18" target="rOyJMDHYMQfO11lDyAVW-11" edge="1">
          <mxGeometry relative="1" as="geometry">
            <Array as="points">
              <mxPoint x="414" y="370" />
              <mxPoint x="245" y="370" />
            </Array>
          </mxGeometry>
        </mxCell>
        <mxCell id="rOyJMDHYMQfO11lDyAVW-27" style="edgeStyle=orthogonalEdgeStyle;rounded=0;orthogonalLoop=1;jettySize=auto;html=1;entryX=1;entryY=0.5;entryDx=0;entryDy=0;fillColor=#e1d5e7;strokeColor=#9673a6;exitX=0.5;exitY=0;exitDx=0;exitDy=0;strokeWidth=2;" parent="1" source="rOyJMDHYMQfO11lDyAVW-18" target="rOyJMDHYMQfO11lDyAVW-20" edge="1">
          <mxGeometry relative="1" as="geometry">
            <Array as="points">
              <mxPoint x="620" y="460" />
            </Array>
          </mxGeometry>
        </mxCell>
        <mxCell id="rOyJMDHYMQfO11lDyAVW-28" style="edgeStyle=orthogonalEdgeStyle;rounded=0;orthogonalLoop=1;jettySize=auto;html=1;exitX=0.5;exitY=0;exitDx=0;exitDy=0;entryX=1;entryY=0.5;entryDx=0;entryDy=0;fillColor=#e1d5e7;strokeColor=#9673a6;strokeWidth=2;" parent="1" source="rOyJMDHYMQfO11lDyAVW-18" target="rOyJMDHYMQfO11lDyAVW-22" edge="1">
          <mxGeometry relative="1" as="geometry">
            <Array as="points">
              <mxPoint x="788" y="460" />
            </Array>
          </mxGeometry>
        </mxCell>
        <mxCell id="rOyJMDHYMQfO11lDyAVW-29" style="edgeStyle=orthogonalEdgeStyle;rounded=0;orthogonalLoop=1;jettySize=auto;html=1;entryX=1;entryY=0.5;entryDx=0;entryDy=0;fillColor=#e1d5e7;strokeColor=#9673a6;entryPerimeter=0;exitX=0.5;exitY=0;exitDx=0;exitDy=0;strokeWidth=2;" parent="1" source="rOyJMDHYMQfO11lDyAVW-18" target="rOyJMDHYMQfO11lDyAVW-25" edge="1">
          <mxGeometry relative="1" as="geometry">
            <Array as="points">
              <mxPoint x="960" y="460" />
            </Array>
          </mxGeometry>
        </mxCell>
        <mxCell id="thggh9IT_qASrTLztBCA-20" style="edgeStyle=orthogonalEdgeStyle;rounded=0;orthogonalLoop=1;jettySize=auto;html=1;fillColor=#e1d5e7;strokeColor=#9673a6;strokeWidth=2;" parent="1" source="rOyJMDHYMQfO11lDyAVW-18" target="rOyJMDHYMQfO11lDyAVW-16" edge="1">
          <mxGeometry relative="1" as="geometry" />
        </mxCell>
        <mxCell id="rOyJMDHYMQfO11lDyAVW-18" value="hero-service" style="ellipse;whiteSpace=wrap;html=1;direction=south;fillColor=#e1d5e7;strokeColor=#9673a6;" parent="1" vertex="1">
          <mxGeometry x="339" y="420" width="150" height="80" as="geometry" />
        </mxCell>
        <mxCell id="rOyJMDHYMQfO11lDyAVW-21" style="edgeStyle=orthogonalEdgeStyle;rounded=0;orthogonalLoop=1;jettySize=auto;html=1;fillColor=#e1d5e7;strokeColor=#9673a6;strokeWidth=2;" parent="1" source="rOyJMDHYMQfO11lDyAVW-20" target="rOyJMDHYMQfO11lDyAVW-13" edge="1">
          <mxGeometry relative="1" as="geometry" />
        </mxCell>
        <mxCell id="rOyJMDHYMQfO11lDyAVW-20" value="&quot;katarina&quot;-service" style="ellipse;whiteSpace=wrap;html=1;direction=south;fillColor=#e1d5e7;strokeColor=#9673a6;" parent="1" vertex="1">
          <mxGeometry x="560" y="400" width="120" height="40" as="geometry" />
        </mxCell>
        <mxCell id="rOyJMDHYMQfO11lDyAVW-42" style="edgeStyle=orthogonalEdgeStyle;rounded=0;orthogonalLoop=1;jettySize=auto;html=1;entryX=0.5;entryY=1;entryDx=0;entryDy=0;fillColor=#e1d5e7;strokeColor=#9673a6;strokeWidth=2;" parent="1" source="rOyJMDHYMQfO11lDyAVW-22" target="rOyJMDHYMQfO11lDyAVW-40" edge="1">
          <mxGeometry relative="1" as="geometry" />
        </mxCell>
        <mxCell id="rOyJMDHYMQfO11lDyAVW-22" value="&quot;lucy&quot;-service" style="ellipse;whiteSpace=wrap;html=1;direction=south;fillColor=#e1d5e7;strokeColor=#9673a6;" parent="1" vertex="1">
          <mxGeometry x="728" y="400" width="120" height="40" as="geometry" />
        </mxCell>
        <mxCell id="rOyJMDHYMQfO11lDyAVW-43" style="edgeStyle=orthogonalEdgeStyle;rounded=0;orthogonalLoop=1;jettySize=auto;html=1;entryX=0.5;entryY=1;entryDx=0;entryDy=0;fillColor=#e1d5e7;strokeColor=#9673a6;strokeWidth=2;" parent="1" source="rOyJMDHYMQfO11lDyAVW-25" target="rOyJMDHYMQfO11lDyAVW-41" edge="1">
          <mxGeometry relative="1" as="geometry" />
        </mxCell>
        <mxCell id="rOyJMDHYMQfO11lDyAVW-25" value="&quot;enemy&quot;-service" style="ellipse;whiteSpace=wrap;html=1;direction=south;fillColor=#e1d5e7;strokeColor=#9673a6;" parent="1" vertex="1">
          <mxGeometry x="900" y="400" width="120" height="40" as="geometry" />
        </mxCell>
        <mxCell id="rOyJMDHYMQfO11lDyAVW-32" style="edgeStyle=orthogonalEdgeStyle;rounded=0;orthogonalLoop=1;jettySize=auto;html=1;entryX=0.5;entryY=1;entryDx=0;entryDy=0;fillColor=#f8cecc;strokeColor=#b85450;strokeWidth=2;endArrow=oval;endFill=1;" parent="1" source="rOyJMDHYMQfO11lDyAVW-31" target="rOyJMDHYMQfO11lDyAVW-18" edge="1">
          <mxGeometry relative="1" as="geometry">
            <Array as="points">
              <mxPoint x="90" y="460" />
            </Array>
          </mxGeometry>
        </mxCell>
        <mxCell id="rOyJMDHYMQfO11lDyAVW-34" style="edgeStyle=orthogonalEdgeStyle;rounded=0;orthogonalLoop=1;jettySize=auto;html=1;entryX=1;entryY=0;entryDx=0;entryDy=0;fillColor=#f8cecc;strokeColor=#b85450;strokeWidth=2;endArrow=oval;endFill=1;" parent="1" source="rOyJMDHYMQfO11lDyAVW-31" target="rOyJMDHYMQfO11lDyAVW-20" edge="1">
          <mxGeometry relative="1" as="geometry">
            <Array as="points">
              <mxPoint x="662" y="590" />
            </Array>
          </mxGeometry>
        </mxCell>
        <mxCell id="rOyJMDHYMQfO11lDyAVW-62" style="edgeStyle=orthogonalEdgeStyle;rounded=0;orthogonalLoop=1;jettySize=auto;html=1;entryX=1;entryY=0;entryDx=0;entryDy=0;fillColor=#f8cecc;strokeColor=#b85450;strokeWidth=2;" parent="1" source="rOyJMDHYMQfO11lDyAVW-31" target="rOyJMDHYMQfO11lDyAVW-25" edge="1">
          <mxGeometry relative="1" as="geometry">
            <Array as="points">
              <mxPoint x="1002" y="590" />
            </Array>
          </mxGeometry>
        </mxCell>
        <mxCell id="nW0WKrF9zy4aoc_lYDbR-8" style="edgeStyle=orthogonalEdgeStyle;rounded=0;orthogonalLoop=1;jettySize=auto;html=1;entryX=0;entryY=0.5;entryDx=0;entryDy=0;fillColor=#f8cecc;strokeColor=#b85450;strokeWidth=2;endArrow=oval;endFill=1;" parent="1" source="rOyJMDHYMQfO11lDyAVW-31" target="rOyJMDHYMQfO11lDyAVW-11" edge="1">
          <mxGeometry relative="1" as="geometry">
            <Array as="points">
              <mxPoint x="90" y="206" />
            </Array>
          </mxGeometry>
        </mxCell>
        <mxCell id="nW0WKrF9zy4aoc_lYDbR-10" style="edgeStyle=orthogonalEdgeStyle;rounded=0;orthogonalLoop=1;jettySize=auto;html=1;entryX=1;entryY=0.5;entryDx=0;entryDy=0;fillColor=#f8cecc;strokeColor=#b85450;strokeWidth=2;endArrow=oval;endFill=1;" parent="1" source="rOyJMDHYMQfO11lDyAVW-31" target="rOyJMDHYMQfO11lDyAVW-13" edge="1">
          <mxGeometry relative="1" as="geometry">
            <Array as="points">
              <mxPoint x="690" y="590" />
              <mxPoint x="690" y="206" />
            </Array>
          </mxGeometry>
        </mxCell>
        <mxCell id="nW0WKrF9zy4aoc_lYDbR-11" style="edgeStyle=orthogonalEdgeStyle;rounded=0;orthogonalLoop=1;jettySize=auto;html=1;fillColor=#f8cecc;strokeColor=#b85450;strokeWidth=2;endArrow=oval;endFill=1;entryX=1;entryY=0.5;entryDx=0;entryDy=0;" parent="1" source="rOyJMDHYMQfO11lDyAVW-31" target="rOyJMDHYMQfO11lDyAVW-40" edge="1">
          <mxGeometry relative="1" as="geometry">
            <Array as="points">
              <mxPoint x="860" y="590" />
              <mxPoint x="860" y="206" />
            </Array>
            <mxPoint x="850" y="210" as="targetPoint" />
          </mxGeometry>
        </mxCell>
        <mxCell id="nW0WKrF9zy4aoc_lYDbR-12" style="edgeStyle=orthogonalEdgeStyle;rounded=0;orthogonalLoop=1;jettySize=auto;html=1;entryX=1;entryY=0.5;entryDx=0;entryDy=0;fillColor=#f8cecc;strokeColor=#b85450;strokeWidth=2;endArrow=oval;endFill=1;" parent="1" source="rOyJMDHYMQfO11lDyAVW-31" target="rOyJMDHYMQfO11lDyAVW-41" edge="1">
          <mxGeometry relative="1" as="geometry">
            <Array as="points">
              <mxPoint x="1030" y="590" />
              <mxPoint x="1030" y="206" />
            </Array>
          </mxGeometry>
        </mxCell>
        <mxCell id="rOyJMDHYMQfO11lDyAVW-31" value="&lt;font style=&quot;font-size: 14px;&quot;&gt;character-model&lt;/font&gt;&lt;div&gt;&lt;b&gt;&lt;font size=&quot;3&quot;&gt;INTERFACE&lt;/font&gt;&lt;/b&gt;&lt;/div&gt;" style="shape=hexagon;perimeter=hexagonPerimeter2;whiteSpace=wrap;html=1;fixedSize=1;fillColor=#f8cecc;strokeColor=#b85450;" parent="1" vertex="1">
          <mxGeometry x="30" y="550" width="120" height="80" as="geometry" />
        </mxCell>
        <mxCell id="nW0WKrF9zy4aoc_lYDbR-2" style="edgeStyle=orthogonalEdgeStyle;rounded=0;orthogonalLoop=1;jettySize=auto;html=1;entryX=0.75;entryY=1;entryDx=0;entryDy=0;fillColor=#d5e8d4;strokeColor=#82b366;strokeWidth=2;" parent="1" source="rOyJMDHYMQfO11lDyAVW-40" target="rOyJMDHYMQfO11lDyAVW-8" edge="1">
          <mxGeometry relative="1" as="geometry">
            <Array as="points">
              <mxPoint x="780" y="180" />
              <mxPoint x="434" y="180" />
            </Array>
          </mxGeometry>
        </mxCell>
        <mxCell id="nW0WKrF9zy4aoc_lYDbR-3" style="edgeStyle=orthogonalEdgeStyle;rounded=0;orthogonalLoop=1;jettySize=auto;html=1;entryX=0.75;entryY=1;entryDx=0;entryDy=0;fillColor=#d5e8d4;strokeColor=#82b366;strokeWidth=2;" parent="1" source="rOyJMDHYMQfO11lDyAVW-41" target="rOyJMDHYMQfO11lDyAVW-8" edge="1">
          <mxGeometry relative="1" as="geometry">
            <Array as="points">
              <mxPoint x="960" y="180" />
              <mxPoint x="434" y="180" />
            </Array>
          </mxGeometry>
        </mxCell>
        <mxCell id="rOyJMDHYMQfO11lDyAVW-61" style="edgeStyle=orthogonalEdgeStyle;rounded=0;orthogonalLoop=1;jettySize=auto;html=1;fillColor=#f8cecc;strokeColor=#b85450;entryX=1;entryY=0;entryDx=0;entryDy=0;strokeWidth=2;endArrow=oval;endFill=1;" parent="1" source="rOyJMDHYMQfO11lDyAVW-31" target="rOyJMDHYMQfO11lDyAVW-22" edge="1">
          <mxGeometry relative="1" as="geometry">
            <Array as="points">
              <mxPoint x="830" y="590" />
            </Array>
            <mxPoint x="746" y="440" as="targetPoint" />
          </mxGeometry>
        </mxCell>
        <mxCell id="nW0WKrF9zy4aoc_lYDbR-21" style="edgeStyle=orthogonalEdgeStyle;rounded=0;orthogonalLoop=1;jettySize=auto;html=1;entryX=0.671;entryY=0.971;entryDx=0;entryDy=0;entryPerimeter=0;fillColor=#fad9d5;strokeColor=#ae4132;strokeWidth=2;endArrow=oval;endFill=1;" parent="1" source="rOyJMDHYMQfO11lDyAVW-31" target="rOyJMDHYMQfO11lDyAVW-16" edge="1">
          <mxGeometry relative="1" as="geometry">
            <Array as="points">
              <mxPoint x="90" y="297" />
            </Array>
          </mxGeometry>
        </mxCell>
        <mxCell id="thggh9IT_qASrTLztBCA-14" style="edgeStyle=orthogonalEdgeStyle;rounded=0;orthogonalLoop=1;jettySize=auto;html=1;exitX=0;exitY=0.5;exitDx=0;exitDy=0;fillColor=#dae8fc;strokeColor=#6c8ebf;strokeWidth=2;endArrow=diamond;endFill=1;gradientColor=#7ea6e0;" parent="1" source="vNfRtC5TmXjWAoymFPlJ-1" target="thggh9IT_qASrTLztBCA-1" edge="1">
          <mxGeometry relative="1" as="geometry">
            <Array as="points" />
          </mxGeometry>
        </mxCell>
        <mxCell id="thggh9IT_qASrTLztBCA-15" style="edgeStyle=orthogonalEdgeStyle;rounded=0;orthogonalLoop=1;jettySize=auto;html=1;entryX=1;entryY=0.5;entryDx=0;entryDy=0;fillColor=#dae8fc;strokeColor=#6c8ebf;strokeWidth=2;endArrow=diamond;endFill=1;exitX=0;exitY=0.5;exitDx=0;exitDy=0;gradientColor=#7ea6e0;" parent="1" source="vNfRtC5TmXjWAoymFPlJ-1" target="thggh9IT_qASrTLztBCA-5" edge="1">
          <mxGeometry relative="1" as="geometry">
            <Array as="points">
              <mxPoint x="185" y="390" />
              <mxPoint x="550" y="390" />
            </Array>
          </mxGeometry>
        </mxCell>
        <mxCell id="vNfRtC5TmXjWAoymFPlJ-6" style="edgeStyle=orthogonalEdgeStyle;rounded=0;orthogonalLoop=1;jettySize=auto;html=1;strokeWidth=2;fillColor=#dae8fc;gradientColor=#7ea6e0;strokeColor=#6c8ebf;" parent="1" source="HAnbgLj2aRi-n-r4w7ch-5" target="vNfRtC5TmXjWAoymFPlJ-1" edge="1">
          <mxGeometry relative="1" as="geometry" />
        </mxCell>
        <mxCell id="HAnbgLj2aRi-n-r4w7ch-5" value="path-json" style="rhombus;whiteSpace=wrap;html=1;fillColor=#dae8fc;strokeColor=#6c8ebf;" parent="1" vertex="1">
          <mxGeometry x="150" y="600" width="70" height="70" as="geometry" />
        </mxCell>
        <mxCell id="HAnbgLj2aRi-n-r4w7ch-7" style="edgeStyle=orthogonalEdgeStyle;rounded=0;orthogonalLoop=1;jettySize=auto;html=1;entryX=0.971;entryY=0.699;entryDx=0;entryDy=0;entryPerimeter=0;fillColor=#dae8fc;strokeColor=#6c8ebf;exitX=0;exitY=0.5;exitDx=0;exitDy=0;strokeWidth=2;endArrow=diamond;endFill=1;gradientColor=#7ea6e0;" parent="1" source="vNfRtC5TmXjWAoymFPlJ-1" target="rOyJMDHYMQfO11lDyAVW-16" edge="1">
          <mxGeometry relative="1" as="geometry">
            <Array as="points">
              <mxPoint x="185" y="390" />
              <mxPoint x="387" y="390" />
            </Array>
          </mxGeometry>
        </mxCell>
        <mxCell id="thggh9IT_qASrTLztBCA-2" style="edgeStyle=orthogonalEdgeStyle;rounded=0;orthogonalLoop=1;jettySize=auto;html=1;entryX=0.25;entryY=1;entryDx=0;entryDy=0;fillColor=#e6d0de;strokeColor=#996185;gradientColor=#d5739d;exitX=0;exitY=0.5;exitDx=0;exitDy=0;strokeWidth=2;" parent="1" source="thggh9IT_qASrTLztBCA-1" target="rOyJMDHYMQfO11lDyAVW-11" edge="1">
          <mxGeometry relative="1" as="geometry">
            <Array as="points">
              <mxPoint x="185" y="280" />
              <mxPoint x="225" y="280" />
            </Array>
          </mxGeometry>
        </mxCell>
        <mxCell id="thggh9IT_qASrTLztBCA-1" value="&lt;i&gt;hero-anim&lt;/i&gt;" style="ellipse;whiteSpace=wrap;html=1;direction=south;fillColor=#e6d0de;strokeColor=#996185;gradientColor=#d5739d;" parent="1" vertex="1">
          <mxGeometry x="145" y="310" width="80" height="40" as="geometry" />
        </mxCell>
        <mxCell id="thggh9IT_qASrTLztBCA-10" style="edgeStyle=orthogonalEdgeStyle;rounded=0;orthogonalLoop=1;jettySize=auto;html=1;entryX=0.25;entryY=1;entryDx=0;entryDy=0;fillColor=#e6d0de;strokeColor=#996185;gradientColor=#d5739d;strokeWidth=2;" parent="1" source="thggh9IT_qASrTLztBCA-5" target="rOyJMDHYMQfO11lDyAVW-13" edge="1">
          <mxGeometry relative="1" as="geometry">
            <Array as="points">
              <mxPoint x="600" y="330" />
            </Array>
          </mxGeometry>
        </mxCell>
        <mxCell id="thggh9IT_qASrTLztBCA-12" style="edgeStyle=orthogonalEdgeStyle;rounded=0;orthogonalLoop=1;jettySize=auto;html=1;entryX=0.25;entryY=1;entryDx=0;entryDy=0;fillColor=#e6d0de;gradientColor=#d5739d;strokeColor=#996185;strokeWidth=2;" parent="1" source="thggh9IT_qASrTLztBCA-5" target="rOyJMDHYMQfO11lDyAVW-40" edge="1">
          <mxGeometry relative="1" as="geometry" />
        </mxCell>
        <mxCell id="thggh9IT_qASrTLztBCA-13" style="edgeStyle=orthogonalEdgeStyle;rounded=0;orthogonalLoop=1;jettySize=auto;html=1;entryX=0.25;entryY=1;entryDx=0;entryDy=0;fillColor=#e6d0de;gradientColor=#d5739d;strokeColor=#996185;strokeWidth=2;" parent="1" source="thggh9IT_qASrTLztBCA-5" target="rOyJMDHYMQfO11lDyAVW-41" edge="1">
          <mxGeometry relative="1" as="geometry" />
        </mxCell>
        <mxCell id="thggh9IT_qASrTLztBCA-5" value="&lt;i&gt;enemy-anim&lt;/i&gt;" style="ellipse;whiteSpace=wrap;html=1;direction=south;fillColor=#e6d0de;strokeColor=#996185;gradientColor=#d5739d;" parent="1" vertex="1">
          <mxGeometry x="510" y="310" width="80" height="40" as="geometry" />
        </mxCell>
        <mxCell id="vNfRtC5TmXjWAoymFPlJ-1" value="json-service" style="ellipse;whiteSpace=wrap;html=1;direction=south;fillColor=#dae8fc;strokeColor=#6c8ebf;gradientColor=#7ea6e0;" parent="1" vertex="1">
          <mxGeometry x="145" y="520" width="80" height="40" as="geometry" />
        </mxCell>
        <mxCell id="rr9nGGbvP-Pm4ZiBwVh3-3" style="edgeStyle=orthogonalEdgeStyle;rounded=0;orthogonalLoop=1;jettySize=auto;html=1;entryX=0.5;entryY=1;entryDx=0;entryDy=0;strokeWidth=2;fillColor=#d5e8d4;strokeColor=#82b366;" edge="1" parent="1" source="rr9nGGbvP-Pm4ZiBwVh3-2" target="rOyJMDHYMQfO11lDyAVW-8">
          <mxGeometry relative="1" as="geometry" />
        </mxCell>
        <mxCell id="rr9nGGbvP-Pm4ZiBwVh3-2" value="maps" style="rounded=0;whiteSpace=wrap;html=1;fillColor=#d5e8d4;strokeColor=#82b366;" vertex="1" parent="1">
          <mxGeometry x="374" y="193" width="80" height="25" as="geometry" />
        </mxCell>
      </root>
    </mxGraphModel>
  </diagram>
</mxfile>
